<svg xmlns="http://www.w3.org/2000/svg" viewBox="0 0 800 800"><defs><style>.cls-1{fill:#18abd3;}.cls-2{fill:#eaeeef;}.cls-3{fill:#e86767;}</style></defs><title>CuteFruits [Récupéré]</title><g id="objects"><circle class="cls-1" cx="400" cy="400" r="400"/><path class="cls-2" d="M582.56,217.58a23.54,23.54,0,0,1-.07,6.08c-.55,4-5.88,4.38-8.36,2.21-1.72-1.51-3.39-3.06-5-4.65a4.69,4.69,0,0,1-2-.57c-5.45-3-8.81-7.9-11-13.4-2.55-3-5-6.17-7.43-9.33H264.93a39.82,39.82,0,0,0-6.49.54c1.94,2.61,1.6,6.89-2.45,7.71-3,.6-5.89,1.33-8.76,2.21,5.87.57,5.67,10-.57,10-5.41,0-10.81,0-16.2-.29a39.36,39.36,0,0,0-5.12,19.46V592.33a39.59,39.59,0,0,0,39.59,39.59H548.35a39.59,39.59,0,0,0,39.59-39.59V237.5A39.39,39.39,0,0,0,582.56,217.58Z" transform="translate(0)"/><path class="cls-3" d="M414.56,117.9l-.23,0a25.44,25.44,0,0,0-15.94,3.2L129.07,275.13c-13.2,7.55-18.22,25.2-11.21,39.42l24.33,49.32c7,14.22,23.4,19.62,36.6,12.07L448.29,221.78c13.2-7.55,18.22-25.2,11.21-39.42l-24.27-49.19A27.17,27.17,0,0,0,414.56,117.9Z" transform="translate(0)"/><path class="cls-3" d="M454.4,122.51c-8.64-1.84-17.34-3.29-26.08-4.51a35.21,35.21,0,0,0-33.63,14.48l-23.09,33c-10.74,15.36-6.52,36.19,9.42,46.53L630,373.61c15.94,10.34,37.56,6.28,48.3-9.07l28.44-40.66c10.74-15.36,6.52-36.19-9.42-46.53l-231-149.89A35.54,35.54,0,0,0,454.4,122.51Z" transform="translate(0)"/><rect class="cls-3" x="356.51" y="471.43" width="102.38" height="160.49" rx="33.31" ry="33.31"/></g></svg>